<svg viewBox="0 0 60 60" fill="none" xmlns="http://www.w3.org/2000/svg">
<path d="M53.3789 0H6.62108C2.96436 0 0 2.96436 0 6.62108V53.3789C0 57.0356 2.96436 60 6.62108 60H53.3789C57.0356 60 60 57.0356 60 53.3789V6.62108C60 2.96436 57.0356 0 53.3789 0Z" fill="url(#paint0_linear_154_4034)"/>
<path d="M10.9817 54.4054L49.0185 54.4054C51.9937 54.4054 54.4055 51.9935 54.4055 49.0184L54.4055 10.9816C54.4055 8.00644 51.9937 5.59459 49.0185 5.59459L10.9817 5.59459C8.00656 5.59459 5.59471 8.00644 5.59471 10.9816L5.59471 49.0184C5.59471 51.9935 8.00656 54.4054 10.9817 54.4054Z" fill="url(#paint1_linear_154_4034)"/>
<path d="M49.0183 5.5946H10.9815C8.00633 5.5946 5.59448 8.00646 5.59448 10.9816V49.0184C5.59448 51.9936 8.00633 54.4054 10.9815 54.4054H49.0183C51.9934 54.4054 54.4053 51.9936 54.4053 49.0184V10.9816C54.4053 8.00646 51.9934 5.5946 49.0183 5.5946Z" stroke="url(#paint2_linear_154_4034)" stroke-width="3" stroke-miterlimit="10"/>
<g style="mix-blend-mode:multiply">
<path d="M53.3789 0H6.62108C2.96436 0 0 2.96436 0 6.62108V53.3789C0 57.0356 2.96436 60 6.62108 60H53.3789C57.0356 60 60 57.0356 60 53.3789V6.62108C60 2.96436 57.0356 0 53.3789 0Z" fill="#71D4EB"/>
</g>

<defs>
<filter id="filter0_d_154_4034" x="25.2344" y="21.7363" width="10.3906" height="15.2637" filterUnits="userSpaceOnUse" color-interpolation-filters="sRGB">
<feFlood flood-opacity="0" result="BackgroundImageFix"/>
<feColorMatrix in="SourceAlpha" type="matrix" values="0 0 0 0 0 0 0 0 0 0 0 0 0 0 0 0 0 0 127 0" result="hardAlpha"/>
<feOffset/>
<feComposite in2="hardAlpha" operator="out"/>
<feColorMatrix type="matrix" values="0 0 0 0 0 0 0 0 0 0 0 0 0 0 0 0 0 0 0.25 0"/>
<feBlend mode="color" in2="BackgroundImageFix" result="effect1_dropShadow_154_4034"/>
<feBlend mode="normal" in="SourceGraphic" in2="effect1_dropShadow_154_4034" result="shape"/>
</filter>
<linearGradient id="paint0_linear_154_4034" x1="2" y1="58" x2="58" y2="2" gradientUnits="userSpaceOnUse">
<stop stop-opacity="0.3"/>
<stop offset="0.24" stop-color="#383838" stop-opacity="0.45"/>
<stop offset="0.78" stop-color="#C4C4C4" stop-opacity="0.84"/>
<stop offset="1" stop-color="#FCFCFC" stop-opacity="0.97"/>
</linearGradient>
<linearGradient id="paint1_linear_154_4034" x1="53" y1="7" x2="7" y2="53" gradientUnits="userSpaceOnUse">
<stop stop-opacity="0.3"/>
<stop offset="0.24" stop-color="#383838" stop-opacity="0.45"/>
<stop offset="0.78" stop-color="#C4C4C4" stop-opacity="0.84"/>
<stop offset="1" stop-color="#FCFCFC" stop-opacity="0.97"/>
</linearGradient>
<linearGradient id="paint2_linear_154_4034" x1="7" y1="53" x2="53" y2="7" gradientUnits="userSpaceOnUse">
<stop stop-opacity="0.1"/>
<stop offset="0.15" stop-color="#323232" stop-opacity="0.28"/>
<stop offset="0.39" stop-color="#7A7A7A" stop-opacity="0.53"/>
<stop offset="0.6" stop-color="#B3B3B3" stop-opacity="0.73"/>
<stop offset="0.77" stop-color="#DCDCDC" stop-opacity="0.88"/>
<stop offset="0.92" stop-color="#F5F5F5" stop-opacity="0.97"/>
<stop offset="1" stop-color="white" stop-opacity="0.5"/>
</linearGradient>
<linearGradient id="paint3_linear_154_4034" x1="24" y1="30.5" x2="37" y2="22" gradientUnits="userSpaceOnUse">
<stop stop-color="white"/>
<stop offset="0.9999" stop-color="white" stop-opacity="0.523999"/>
<stop offset="1" stop-color="white"/>
</linearGradient>
</defs>
</svg>
